<svg width="141" height="55" viewBox="0 0 141 55" fill="none" xmlns="http://www.w3.org/2000/svg">
<path d="M16.8039 43.8334H21.3462L21.5706 44.5265C21.5706 44.5265 21.7717 44.8452 22.0409 44.8452H27.5734C27.5734 44.8452 28.8638 44.8127 28.8638 43.9076C28.8638 43.9076 28.627 42.0975 26.7736 42.2243L24.1806 42.4038C24.1806 42.4038 23.7335 42.5369 22.7944 42.9391C22.6861 42.9871 22.5824 43.032 22.4834 43.0753H16.8054C16.595 43.0753 16.4248 43.2439 16.4248 43.4543C16.4248 43.6647 16.5934 43.8334 16.8039 43.8334Z" fill="#FBFF28"/>
<path d="M31.545 41.6101V42.6281H43.919V41.9118C43.919 40.6045 42.443 40.7716 42.443 40.7716H32.9869C31.3779 40.7716 31.545 41.6101 31.545 41.6101Z" fill="#FBFF28"/>
<path d="M42.0407 35.1539V37.7423H42.6441V35.1075C43.2552 34.9296 43.7008 34.3665 43.7008 33.6981C43.7008 32.8859 43.0433 32.2283 42.2326 32.2283C41.4203 32.2283 40.7612 32.8859 40.7612 33.6981C40.7612 34.4454 41.3182 35.0611 42.0407 35.1539Z" fill="#FBFF28"/>
<path d="M29.8816 23.2689H30.2591L30.2916 42.3822C30.2916 42.4131 30.2962 42.4425 30.3009 42.4719H30.8021V41.1971C30.7897 40.6169 31.4705 40.3152 31.8495 40.193L31.0342 23.2689H31.4241C31.7196 23.2689 31.9594 23.0291 31.9594 22.732C31.9594 22.435 31.7196 22.1952 31.4241 22.1952H30.9847L30.372 7.4417C30.372 7.15548 30.5221 6.92186 30.2653 6.90639C30.0069 6.92186 30.1585 7.15548 30.1585 7.4417L30.256 22.1952H29.8816C29.5861 22.1952 29.3447 22.435 29.3447 22.732C29.3447 23.0291 29.5845 23.2689 29.8816 23.2689Z" fill="#FBFF28"/>
<path d="M113.193 39.5354L112.322 39.5401H110.579C110.579 39.5401 109.605 39.4411 109.605 40.0785V41.655C109.605 42.359 110.412 42.2244 110.412 42.2244H116.212C116.212 42.2244 116.95 42.1563 117.386 41.655L117.855 41.1522V41.0872L123.27 40.572C123.48 40.5519 123.632 40.3663 123.612 40.1558C123.592 39.947 123.406 39.7954 123.195 39.8155L117.712 40.3353C117.552 40.2286 117.256 40.0738 116.815 40.0104C116.108 39.9098 113.193 39.5354 113.193 39.5354Z" fill="#FBFF28"/>
<path d="M84.9614 0C84.9706 0 84.9783 5.01608e-06 84.9875 0.00154118C84.9968 5.01608e-06 85.0044 0 85.0152 0H84.9614Z" fill="#FBFF28"/>
<path d="M84.6026 17.3016H84.9615L85.0126 39.0961C85.0126 39.127 85.0172 39.1564 85.0203 39.1858H85.7908V35.2282C85.7769 34.6465 86.19 34.3464 86.569 34.2241L85.7552 17.3016H86.1451C86.4406 17.3016 86.682 17.0618 86.682 16.7647C86.682 16.4677 86.4421 16.2279 86.1451 16.2279H85.7073L85.0946 0.535309C85.0946 0.247542 85.2462 0.0154713 84.9878 0C84.731 0.0154713 84.8811 0.247542 84.8811 0.535309L84.96 16.2279H84.6057C84.3102 16.2279 84.0688 16.4677 84.0688 16.7647C84.0688 17.0618 84.3071 17.3016 84.6026 17.3016Z" fill="#FBFF28"/>
<path d="M89.2858 42.2337H104.901H107.593H108.131V42.1811V41.6968V40.818V40.572V40.2379C108.131 39.9408 107.892 39.6995 107.593 39.6995H95.9585C95.9585 37.3788 95.9585 30.2248 95.9585 29.7746C95.9585 29.7081 95.9446 29.6508 95.923 29.5998C95.7621 29.247 95.12 29.2733 95.12 29.2733H93.4429V28.2615C93.4398 27.8422 92.807 27.8639 92.807 27.8639H90.6117H90.1243H89.9185V30.296V30.3223C89.9185 30.3223 89.9154 30.3238 89.9154 30.3269C89.8969 30.4306 89.8505 30.5451 89.7267 30.5729C89.7081 30.5791 89.6942 30.5807 89.6942 30.5807H89.4853H89.3043H88.8495C88.045 30.5807 88.1455 31.7549 88.1455 31.7549V34.4701C86.6355 34.4701 86.7036 36.2818 86.7036 36.2818V39.701H84.222V39.2322C84.222 38.6118 82.9487 38.6257 82.9487 38.6257H79.6812V40.2379V40.572V41.6983V42.2368H80.2165H89.2858V42.2337Z" fill="#FBFF28"/>
<path d="M107.357 38.4927C107.357 38.4927 107.357 38.4199 107.292 38.3147L114.106 37.6464C114.316 37.6247 114.468 37.4391 114.448 37.2302C114.428 37.0213 114.242 36.8697 114.032 36.8883L106.165 37.6588C106.118 37.6448 106.069 37.6309 106.016 37.6201L102.294 36.7815C102.294 36.7815 102.026 36.7815 101.087 36.7815H100.55C100.55 36.7815 99.5444 36.715 99.5444 37.6201V39.0388H107.357V38.4927Z" fill="#FBFF28"/>
<path d="M64.0687 26.49C64.0687 26.193 63.8304 25.9531 63.5334 25.9531H60.2132C59.9177 25.9531 59.6748 26.1914 59.6748 26.49V26.9975H64.0671L64.0687 26.49Z" fill="#FBFF28"/>
<path d="M72.8551 31.184C72.8551 30.8885 72.6153 30.6456 72.3182 30.6456H67.5237C67.2266 30.6456 66.9868 30.8869 66.9868 31.184V31.6914H72.8535L72.8551 31.184Z" fill="#FBFF28"/>
<path d="M133.221 43.0815L85.2073 42.9855L76.6454 42.984V44.3254H76.0761V42.2909C76.0761 41.6318 75.1029 41.375 75.1029 41.375C73.4568 40.8737 72.9772 38.8083 72.8565 37.2318V32.3614H66.9882V44.3254H64.0688V27.6674H59.6765V44.3269H56.7942V41.0578C56.9736 41.0485 57.1485 41.0408 57.3078 41.0408C57.3759 41.0408 57.4378 41.0408 57.4966 41.0408C57.4997 41.0408 57.5028 41.0408 57.5043 41.0408H58.2036C58.4558 41.0408 58.6616 40.8366 58.6616 40.5828C58.6616 40.3291 58.4558 40.1233 58.2036 40.1233H57.5043C57.4997 40.1233 57.495 40.1249 57.4888 40.1264C57.4331 40.1233 57.3976 40.1233 57.3976 40.1233H56.7926V38.2498C56.7926 38.2467 56.7926 38.2451 56.7926 38.2436V36.9502V36.9362C56.7911 36.9038 56.7416 36.1472 55.8117 35.6057L50.635 32.8673C50.5546 32.8069 50.3117 32.6445 50.0409 32.6816C49.8769 32.7033 49.7346 32.793 49.631 32.94C49.2674 33.4598 49.7392 33.8095 50.1957 34.1483L50.3333 34.2504L56.2542 38.3844V40.1218H45.859C44.988 40.1218 45.0545 40.7639 45.0545 40.7639C45.0545 41.361 45.5914 41.4183 45.5914 41.4183L47.6692 41.6952V44.3254H44.6182V43.705C44.6182 42.9469 43.2088 43.0753 43.2088 43.0753L32.1777 42.984C29.8911 42.984 29.8973 43.8674 29.8973 43.8674V44.8452L35.8336 44.8251C35.8723 44.8483 35.9187 44.8607 35.9667 44.8607H56.426C56.4569 44.8715 56.4878 44.8792 56.5219 44.8792C56.5544 44.8792 56.5853 44.8715 56.6163 44.8607H83.6369C83.3677 45.4718 82.5632 45.4424 82.5632 45.4424H1.6002C1.6002 45.4424 -0.618394 45.3078 0.169097 46.6894L4.50571 52.9475C4.50571 52.9475 5.48814 54.3338 7.50096 54.3338L131.969 54.2502C135.802 54.2502 136.971 51.863 137.302 50.8078L141 43.0289L133.221 43.0815ZM50.6521 33.8188L50.519 33.7198C50.3241 33.5743 50.058 33.3778 50.0471 33.302C50.0471 33.302 50.0471 33.285 50.075 33.2494C50.0982 33.2169 50.109 33.2154 50.1152 33.2154C50.1183 33.2154 50.1229 33.2154 50.126 33.2154C50.1817 33.2154 50.2746 33.2649 50.321 33.302L50.3411 33.3206L55.5534 36.0776C56.1862 36.4458 56.2527 36.913 56.2589 36.961V37.733L50.6521 33.8188ZM52.2518 42.0155L54.4472 41.4198C55.0227 41.2698 55.6632 41.163 56.2573 41.1011V44.3269H53.1135L52.2518 42.0155Z" fill="#FBFF28"/>
<path d="M42.6441 38.1013H39.0563C38.1311 38.1013 37.9593 38.6056 37.9284 38.7433C37.9207 38.7805 37.916 38.8207 37.916 38.8609V40.4034H42.6441V38.1013Z" fill="#FBFF28"/>
</svg>
