<svg width="150" height="35" viewBox="0 0 150 35" fill="none" xmlns="http://www.w3.org/2000/svg">
<path d="M0 30.6677V32.9044C0 32.9044 2.9 32.9044 3.33333 32.9044C3.76167 32.9044 4.295 33.0077 4.485 32.4694C4.66833 31.931 5.18667 30.526 5.56 29.5577C23.4483 34.5027 62.4617 34.3094 62.4617 34.3094L87.9833 34.476C90.26 34.4277 121.458 34.1944 132.432 34.0294L134.145 34.0144C134.252 34.0144 134.355 34.0127 134.458 34.0127C143.267 33.8494 148.298 31.9227 149.525 30.1727C149.957 29.456 150.258 28.0927 149.682 26.8794L149.61 26.716C148.877 24.786 143.35 23.0394 134.542 22.876C134.44 22.876 134.335 22.876 134.23 22.8744V22.9077C134.23 22.5577 133.942 22.2644 133.587 22.2644H133.153C132.803 22.2644 132.513 22.5027 132.513 22.8577C121.54 22.6927 90.34 22.4594 88.065 22.411C87.74 20.691 87.435 14.0477 87.2567 12.721C87.1533 11.9844 86.665 11.5527 85.8083 11.3277V11.3094L85.595 10.4994L84.4483 9.80269H82.3683V5.93769H81.7233V8.51436H80.8667V9.80269H80.435V0.349365H80.0017V9.80269H79.5733V10.2344H77.2083V1.64269H76.5633V10.2344H74.6317V2.49936H75.0633V1.64269H73.345V2.49936H73.7767V10.021L72.9583 10.396C68.02 10.3344 62.745 10.996 61.015 11.1594C60.9433 11.551 61.1417 12.3844 61.1417 12.3844H63.4333L62.9933 17.111H64.3583L64.265 17.9694H63.005L62.9 19.2577H64.0817L63.8917 20.1194H62.7883L62.5417 22.5777C62.5417 22.5777 23.5283 22.3844 5.64167 27.3294C5.26667 26.361 4.75 24.9577 4.565 24.4177C4.375 23.881 3.84167 23.9827 3.41167 23.9827C2.98167 23.9827 0.0799998 23.9827 0.0799998 23.9827V26.3177C0.53 26.3594 0.886667 27.316 0.886667 28.4944C0.886667 29.701 0.51 30.6794 0.0483338 30.6794C0.0333338 30.6827 0.0183333 30.671 0 30.6677ZM76.5667 11.3127H74.8483V10.6677H76.5667V11.3127ZM79.5767 11.3127H77.4317V10.6677H79.5767V11.3127ZM82.1567 11.3127H80.005V10.6677H82.1567V11.3127ZM85.39 11.926C85.39 12.0444 85.2967 12.1177 85.1783 12.1177L64.0867 12.356C64.0433 12.356 64.0033 12.3327 64.0017 12.2894C64.0017 12.251 64.04 12.226 64.0833 12.226L85.1667 11.741H85.17C85.29 11.7427 85.39 11.8077 85.39 11.926ZM87.335 22.3494C87.335 22.5177 87.2167 22.6377 87.0683 22.6377L63.01 22.4477C62.9517 22.4477 62.905 22.411 62.905 22.341C62.905 22.276 62.9517 22.2227 63.01 22.221L87.07 22.0527H87.0783C87.22 22.0527 87.3367 22.176 87.335 22.3494ZM101.495 24.2044H99.9883V23.7727H101.495V24.2044ZM103.642 24.2044H102.14V23.7727H103.642V24.2044Z" fill="#FBFF28"/>
</svg>
