<svg width="200" height="52" viewBox="0 0 200 52" fill="none" xmlns="http://www.w3.org/2000/svg">
<path d="M13.4691 51.3125H196.917L200 44.7058V35.0158H199.56V44.7058H170.049L168.728 41.6226H165.204V40.7417H168.067V40.3012H165.204C165.204 40.3012 164.544 39.2001 163.002 39.2001C161.24 39.2001 161.24 39.4204 161.24 39.8608V41.6226H159.038C159.038 41.6226 159.038 40.081 158.377 39.8608C157.937 39.6406 156.836 39.6406 156.836 39.6406V38.5394H159.258V38.099H156.395C156.395 38.099 154.854 37.2181 153.753 37.2181C152.652 37.2181 151.991 37.2181 151.991 37.8788V39.6406H150.449L150.229 38.9799V37.4383L151.11 36.117V35.2361H149.568V34.3552H146.485V33.6945C146.485 33.6945 147.586 33.254 148.027 33.254H148.467V33.0338H147.586C147.586 33.0338 146.926 32.3731 146.265 32.3731C145.604 32.3731 145.164 33.0338 145.164 33.254C145.164 33.4743 145.825 33.6945 145.825 33.6945V34.3552H145.164V35.4563H142.962L142.301 34.7956V33.9147L143.622 32.8136V32.1529H141.64V30.3911H140.539V29.5102C140.539 29.5102 141.42 28.8495 141.42 28.4091C141.42 27.9686 140.759 27.5282 139.878 27.5282C138.998 27.5282 138.337 29.29 138.337 29.29L138.777 29.9507V30.6113L138.337 30.8316V32.3731H137.016V33.0338H135.474L134.813 30.1709L136.135 29.5102L134.593 29.29L133.932 28.1889V27.0877L137.236 26.6473V25.7664H137.016L136.795 26.2068L133.712 26.427L133.272 22.6832H133.051L132.831 26.427L129.087 26.6473L128.647 21.3619L129.748 21.1416L130.629 20.481V20.2607H129.087L128.647 6.60676H128.427L128.207 20.2607H125.564V20.7012H126.885L127.766 21.5821V26.427H127.326V27.0877H127.766L129.528 33.4743L128.427 27.9686L128.207 26.6473L129.748 26.8675L131.51 27.5282L131.069 29.5102H129.528V29.9507H130.849L129.968 33.0338H128.207V35.2361L126.665 35.6765L124.463 34.5754L124.022 34.7956L124.463 35.2361L126.224 36.117V37.4383H125.564C125.564 37.4383 125.344 36.7776 124.903 36.7776C124.242 36.7776 124.463 37.4383 124.463 37.4383H122.921V35.4563H122.481V36.5574L122.04 37.4383H120.939C120.939 37.4383 120.719 36.3372 120.058 36.5574C119.398 36.5574 119.398 37.4383 119.398 37.4383H117.856L116.755 28.6293L117.636 28.1889V27.5282H116.535V25.3259C116.535 25.3259 118.296 23.7843 118.296 22.9034C118.296 22.0225 114.993 19.1596 114.993 19.1596V18.2787H113.892V19.1596H111.029L110.589 14.3147C110.589 14.3147 110.588 14.0944 111.029 14.3147C111.469 14.3147 111.69 15.636 112.13 15.636C112.571 15.636 114.112 15.4158 114.112 15.1956C114.112 15.1956 114.112 14.7551 113.672 14.0944C113.231 13.4338 110.368 12.1124 110.368 12.1124L110.589 3.08316C110.589 3.08316 111.469 2.42248 112.35 2.86293C113.231 3.30338 114.332 3.52361 114.553 3.52361C114.773 3.52361 115.654 3.30338 115.654 3.30338L115.213 0.440452C115.213 0.440452 114.993 0.660675 114.332 0.660675C113.672 0.660675 112.13 0 111.69 0C111.249 0 110.589 0.440452 110.589 0.440452C110.589 0.440452 110.588 0.22023 110.368 0.22023C110.148 0.22023 110.148 0.660675 110.148 0.660675V11.2315L109.267 11.0113C109.267 11.0113 108.166 10.1304 107.946 10.1304C107.726 10.1304 107.726 10.791 107.726 10.791C107.726 10.791 105.303 16.7371 105.744 16.9574C105.964 17.1776 107.285 17.618 107.726 17.618C108.166 17.618 109.708 14.7551 109.708 14.7551L109.267 18.9394H106.404L105.303 18.2787L104.422 18.4989L103.762 19.1596C103.762 19.1596 107.946 21.1416 108.166 21.5821C108.166 22.0225 107.285 23.3439 107.285 23.3439L105.744 23.7843L105.083 24.0046L104.863 22.463L103.762 22.2428C103.762 22.2428 103.982 21.1416 103.321 21.1416C102.66 21.1416 102.44 22.0225 102.66 22.2428C103.101 22.463 103.321 22.6832 103.321 22.6832L104.422 22.9034V24.2248H103.982V25.1057H106.404L107.065 25.7664L106.404 33.254H106.184L105.964 30.1709C105.964 30.1709 104.863 29.0698 102.881 29.0698C100.899 29.0698 100.458 29.0698 100.458 29.0698V30.8316H98.6963L98.4761 29.7304L97.8154 29.29V28.8495C97.8154 28.8495 98.6963 28.6293 98.6963 27.9686C98.6963 27.5282 98.2559 27.0877 97.8154 26.8675C97.5952 26.6473 97.1547 26.427 97.1547 26.427L96.9345 16.2967H96.7143V26.427C96.7143 26.427 95.3929 26.8675 95.3929 27.7484C95.3929 28.4091 96.2738 29.0698 96.2738 29.0698V29.5102H95.1727V31.4922H88.1255V35.0158H87.4648L87.2446 34.5754H86.1435V35.6765L87.4648 36.7776V38.3192H87.0244V39.6406H86.3637V38.3192H85.4828V35.8967H80.4176L79.5367 34.3552H77.7749C77.7749 34.3552 77.3345 34.3552 77.3345 34.5754C77.1142 34.7956 77.1142 34.7956 77.1142 34.7956H73.3704V35.0158H76.2333C76.2333 35.0158 76.2333 35.2361 76.2333 35.4563L76.4536 35.6765V36.117C76.4536 36.117 76.0131 36.3372 75.7929 36.3372C75.5727 36.5574 74.6917 37.2181 74.6917 37.2181H72.7097V37.4383H73.8109V37.8788H74.6917C74.6917 37.8788 75.1322 38.099 75.3524 38.099C75.5727 38.099 75.5727 38.5394 75.5727 38.5394V39.8608H75.1322V41.4024H69.4063V39.6406C69.4063 39.6406 70.7277 38.9799 70.7277 37.2181C70.7277 35.6765 69.8468 34.7956 68.3052 34.7956C66.7636 34.7956 64.7816 34.7956 64.7816 34.7956C64.7816 34.7956 62.5794 35.6765 62.1389 36.117C61.6985 36.7776 61.4782 37.2181 61.4782 37.2181L46.7231 36.5574V37.2181L61.0378 38.5394V40.081L57.9546 43.3844L42.9793 42.7237C42.9793 42.7237 42.5388 41.4024 40.3366 41.4024C38.3546 41.4024 0.696021 38.9799 0.696021 38.9799C0.696021 38.9799 -0.184881 38.9799 0.0353448 39.6406C0.25557 40.081 4.8803 42.2833 7.96346 45.8069C11.0466 49.3305 13.0286 51.0923 13.0286 51.0923L13.4691 51.3125Z" fill="#FBFF28"/>
</svg>
