<svg width="250" height="45" viewBox="0 0 250 45" fill="none" xmlns="http://www.w3.org/2000/svg">
<path d="M248.573 35.4L247.303 34.9225V35.6116H245.445V36.0755H244.984V34.4586H245.472V33.3409L248.92 32.8282V32.5352H248.497V31.2168H248.595V30.8505H246.354V30.6796L244.108 30.1452L240.565 30.1479V29.7193H239.322V30.1479L217.668 30.1642L218.577 28.6775L228.129 23.7673V25.5523H228.758V23.4499L229.754 22.9371V24.5974H230.137V22.7418L230.535 22.5356L230.557 21.9876L230.221 21.8303L217.742 26.8898L213.477 30.1642H211.125H192.186V30.4219H186.962V27.2397H187.141V26.6944H186.962V21.9876H186.392V26.6944H185.288V22.1341H184.734V21.1033H185.573V20.2786H186.159V19.7523H184.666V16.8115H187.851V16.1279H184.072V14.9125H184.93V13.6755H184.072V12.4655H183.389V14.8067H182.526V14.3862H181.316V15.3357H182.526V15.2028H183.389V16.1306H179.607V16.8142H182.786V19.7523H181.294V20.2786H181.88V21.1033H182.724V22.1341H182.168V30.4219H181.395V29.741H180.464V21.8493H179.916V30.4219H179.216V29.3151H178.896V27.8745H177.556V29.3151H176.845V26.0461H179.336V25.452H178.457V24.9392H179.547V24.3614H177.852V24.9392H178.09V25.452H176.845V22.3349H177.312V21.7869H177.597V22.598H179.36V19.8364H177.597V20.6366H177.312V20.1511H176.845V16.3693H176.384V15.9543H176.712V14.9315H175.893V15.9543H176.205V16.3693H175.014V15.881H175.383V14.7335H174.192V15.881H174.55V16.3693H173.468V15.5121H173.867V14.4025H172.735V15.5121H173.115V16.3693H170.923V13.4747H172.092V12.9511H168.888V8.39084H173.064V7.79944H172.779V6.31551H172.157V7.79944H168.886V6.80112H170.983V5.98997H168.886V3.91193H172.513V2.98413H172.247V0H171.604V2.98413H168.886V2.16214H169.841V0.176332H166.987V2.16214H167.985V2.98413H165.554V3.91193H167.985V5.98997H165.975V6.80112H167.985V7.79944H165.047V6.43489H164.361V7.79944H164.201V8.39084H167.985V10.4689H165.931V11.2176H166.441V12.083H167.128V11.2176H167.985V16.3693H166.835V13.784H166.127V16.372H164.865V15.2489H164.119V16.372H160.669V15.7562H161.027V14.3862H159.32V15.2245H158.509V15.9081H158.902V16.372H158.466V18.0784H157.202V18.423H158.466V18.8869H157.245V19.3074H158.466V20.4169H157.34V21.2064H158.466V22.183H158.129V21.9605H157.001V23.1325H158.129V22.7174H158.466V23.4879H153.933V23.7293H155.875V25.3624H156.366V25.9159H158.466V29.8034H147.251V29.7193H147.915V28.588H147.251V27.7253H145.772V29.3557H144.451V29.2038H142.574V29.92H140.444V29.6189H138.288V30.4219H134.376V28.588H131.779V30.4219H128.331V28.4334H127.485V29.2337H125.567V29.117H124.639V30.1994L124.417 29.9444V28.5039H122.431V29.6515H114.96C115.274 29.5782 115.5 29.3096 115.5 28.976C115.5 28.862 115.472 28.7481 115.421 28.6504H115.592V28.3249H115.619V26.1356H116.693V25.6717H115.087V25.4031H113.763V26.7324H114.056V27.1611H112.54V27.0336H111.447V27.7606H109.757V24.3994H109.919V23.401H110.03V22.9534H102.95V23.401H103.007V24.3614H102.608V24.9148H103.007H103.411H103.634V23.4038H109.222V24.4021H109.436V28.314C109.379 28.3059 109.317 28.2923 109.263 28.2923C108.875 28.2923 108.574 28.6043 108.574 28.9787C108.574 29.3123 108.804 29.5809 109.119 29.6542H103.164L103.153 29.1686L102.955 29.1062L102.969 28.5283L103.818 27.6521L103.457 27.2641L103.102 27.4812L101.745 29.6569H99.6837L99.6728 29.1713L99.4775 29.1089L99.4938 28.531L100.337 27.6548L99.9712 27.2669L99.624 27.4839L98.2649 29.6596H95.9806V29.1957H95.1804V27.8637H95.7148V27.332H95.1804V25.7422H94.9118V27.332H94.3882V27.8637H94.9118V29.1876H94.1251V29.6515H89.5051H89.0819V29.1876H87.2236V29.6515H81.3936V24.6734H80.8701V29.6515H78.7513V21.2281H78.2115V29.6515H58.858V25.4737H58.5949V29.353H38.1779V25.4737H37.9148V29.353H32.6112V21.4966H32.0822V29.353H31.0214V21.2281H30.4924V29.353H14.6494V29.3123H13.9223V28.8946H13.2577V23.8866H12.7314V28.8946H11.9311V29.3151H4.77462V21.7652H4.50333V29.3151H3.1876V21.7652H2.91631V29.3151H1.8583V21.7652H1.59516V29.3151H0V30.0557H1.84474V30.8532H0V32.7658C2.96515 34.8438 9.98872 38.3326 9.98872 43.4599C13.7433 43.4599 121.788 43.9455 121.788 43.9455L243.033 44.3877L243.267 43.9021L247.268 43.3378V40.5897L246.549 40.0769C247.211 39.7405 247.794 39.3987 247.794 39.2251C247.794 38.8344 247.794 38.3977 247.794 38.3977H246.867L247.103 36.8541H248.557V37.1416H250V35.3973L248.573 35.4ZM245.524 31.9899L246.297 31.2168H248.074V32.5352H245.524V31.9899ZM211.708 33.2921H212.172V41.2489H211.708V33.2921ZM193.546 31.9547H211.491V32.4294H193.546V31.9547ZM195.537 38.5659V38.102H211.315V38.5659H195.537ZM211.315 40.0525V40.5191H195.537V40.0525H211.315ZM195.04 33.2921V41.2489H194.571V33.2921H195.04ZM186.959 30.8478H192.184V31.6074H186.959V30.8478ZM185.285 27.2397H186.389V30.4219H185.285V27.2397ZM185.285 30.8478H186.389V31.6074H185.285V30.8478ZM181.395 30.8478H182.168V31.6074H181.395V30.8478ZM179.216 30.8478H179.916V31.6074H179.216V30.8478ZM172.402 18.054H176.528V18.526H172.402V18.054ZM172.29 20.2026H176.384V20.6665H172.29V20.2026ZM176.267 22.1884V22.6604H172.513V22.1884H176.267ZM168.886 13.4774H169.374V16.372H168.886V13.4774ZM164.404 18.4745H172.09V18.9465H164.404V18.4745ZM172.228 20.5743V21.049H164.646V20.5743H172.228ZM164.225 22.5248H172.25V22.9914H164.225V22.5248ZM176.384 23.1813V23.6506H158.729V23.1813H176.384ZM173.671 23.8649V29.779H173.21V23.8649H173.671ZM170.427 23.8161V29.8983H169.96V23.8161H170.427ZM169.323 24.0114L167.958 27.4568L167.519 27.2831L168.886 23.8405L169.323 24.0114ZM164.087 24.0603V29.7383H163.612V24.0603H164.087ZM159.016 26.0135H161.336V26.4774H159.016V26.0135ZM158.875 25.1617V24.6896H161.246V25.1617H158.875ZM160.953 22.6876L161.276 21.1575L161.735 21.2579L161.406 22.7879L160.953 22.6876ZM163.59 16.9255H164.065V22.9995H163.59V16.9255ZM160.953 18.2683L161.276 16.741L161.735 16.8414L161.406 18.3687L161.352 18.3497V18.8163H158.81V18.3497H161.317L160.953 18.2683ZM159.236 15.9054H159.499V15.7535H159.83V16.3693H159.236V15.9054ZM158.772 16.5375H160.669V17.0069H158.772V16.5375ZM158.439 20.9839V20.5119H160.956L161.279 18.9954L161.737 19.0958L161.409 20.6204L160.978 20.5227V20.9839H158.439ZM156.776 24.9175V23.7293H158.463V24.9175H156.776ZM144.448 30.0801H146.019V30.1398H158.463V30.4192H144.448V30.0801ZM158.463 30.8478V31.6074H157.953V30.8478H158.463ZM157.736 30.8478V31.6074H157.291V30.8478H157.736ZM157.071 30.8478V31.6074H156.632V30.8478H157.071ZM156.412 30.8478V31.6074H155.975V30.8478H156.412ZM155.75 30.8478V31.6074H155.308V30.8478H155.75ZM155.088 30.8478V31.6074H154.646V30.8478H155.088ZM154.424 30.8478V31.6074H153.981V30.8478H154.424ZM153.759 30.8478V31.6074H153.317V30.8478H153.759ZM153.097 30.8478V31.6074H152.652V30.8478H153.097ZM152.432 30.8478V31.6074H151.993V30.8478H152.432ZM151.776 30.8478V31.6074H151.336V30.8478H151.776ZM151.114 30.8478V31.6074H150.672V30.8478H151.114ZM150.447 30.8478V31.6074H150.004V30.8478H150.447ZM149.782 30.8478V31.6074H149.337V30.8478H149.782ZM149.12 30.8478V31.6074H148.675V30.8478H149.12ZM148.455 30.8478V31.6074H148.013V30.8478H148.455ZM147.791 30.8478V31.6074H147.354V30.8478H147.791ZM147.134 30.8478V31.6074H146.697V30.8478H147.134ZM146.475 30.8478V31.6074H146.03V30.8478H146.475ZM145.808 30.8478V31.6074H145.365V30.8478H145.808ZM145.14 30.8478V31.6074H144.701V30.8478H145.14ZM144.033 30.8478H144.478V31.6074H144.033V30.8478ZM143.374 30.8478H143.816V31.6074H143.374V30.8478ZM142.715 30.8478H143.154V31.6074H142.715V30.8478ZM142.056 30.8478H142.498V31.6074H142.056V30.8478ZM141.391 30.8478H141.836V31.6074H141.391V30.8478ZM140.724 30.8478H141.166V31.6074H140.724V30.8478ZM140.062 30.8478H140.504V31.6074H140.062V30.8478ZM139.394 30.8478H139.837V31.6074H139.394V30.8478ZM138.735 30.8478H139.175V31.6074H138.735V30.8478ZM138.076 30.8478H138.515V31.6074H138.076V30.8478ZM137.417 30.8478H137.859V31.6074H137.417V30.8478ZM136.749 30.8478H137.194V31.6074H136.749V30.8478ZM136.085 30.8478H136.524V31.6074H136.085V30.8478ZM135.417 30.8478H135.862V31.6074H135.417V30.8478ZM134.755 30.8478H135.198V31.6074H134.755V30.8478ZM134.096 30.8478H134.536V31.6074H134.096V30.8478ZM133.437 30.8478H133.876V31.6074H133.437V30.8478ZM132.775 30.8478H133.217V31.6074H132.775V30.8478ZM132.113 30.8478H132.555V31.6074H132.113V30.8478ZM131.446 30.8478H131.888V31.6074H131.446V30.8478ZM130.776 30.8478H131.221V31.6074H130.776V30.8478ZM130.116 30.8478H130.556V31.6074H130.116V30.8478ZM129.457 30.8478H129.897V31.6074H129.457V30.8478ZM128.798 30.8478H129.237V31.6074H128.798V30.8478ZM128.133 30.8478H128.578V31.6074H128.133V30.8478ZM127.398 30.8478H127.908V31.6074H127.398V30.8478ZM125.906 30.8478H127.113V31.6074H125.906V30.8478ZM191.782 32.0903V32.5542H124.699V32.0903H191.782ZM182.54 33.1646V33.8509H181.53V33.1646H182.54ZM178.969 33.3843V33.8726H177.26V33.3843H178.969ZM176.908 33.1863V33.8726H174.453V33.1863H176.908ZM164.958 33.4494V33.8971H162.543V33.4494H164.958ZM162.196 33.4304V33.935H160.907V33.4304H162.196ZM159.193 33.1863V33.9323H157.948V33.1863H159.193ZM155.457 33.558V33.9757H153.688V33.558H155.457ZM114.556 26.7324H115.033V27.4106H114.556V26.7324ZM114.197 29.2852C114.292 29.467 114.461 29.6026 114.664 29.6515H111.756C111.967 29.6026 112.133 29.467 112.222 29.2852H114.197ZM109.751 28.0237H112.445V27.8474H112.534V27.5273H113.989V28.5528H112.149C112.024 28.3954 111.832 28.2896 111.609 28.2896C111.392 28.2896 111.2 28.3981 111.072 28.5528H109.8C109.778 28.5338 109.765 28.5093 109.751 28.4958V28.0237ZM109.876 29.2852H111.002C111.091 29.467 111.265 29.6026 111.463 29.6515H109.407C109.61 29.6026 109.778 29.4697 109.876 29.2852ZM57.8895 31.8244H123.657L124.867 30.2808L125.233 30.5684L123.89 32.2883H57.8895V31.8244ZM103.433 32.7658V33.5335H102.34V32.7658H103.433ZM85.7749 32.603V33.5607H83.4527V32.603H85.7749ZM81.7979 32.7658V33.5932H80.7995V32.7658H81.7979ZM38.1779 29.7193H57.6047V30.0665H38.1779V29.7193ZM57.6047 30.4327V31.3334H56.9237V30.4327H57.6047ZM56.704 30.4327V31.3334H56.2645V30.4327H56.704ZM56.0448 30.4327V31.3334H55.6053V30.4327H56.0448ZM55.3828 30.4327V31.3334H54.9623V30.4327H55.3828ZM54.7399 30.4327V31.3334H54.3194V30.4327H54.7399ZM54.0969 30.4327V31.3334H53.6792V30.4327H54.0969ZM53.454 30.4327V31.3334H53.0416V30.4327H53.454ZM52.8192 30.4327V31.3334H52.4014V30.4327H52.8192ZM52.1817 30.4327V31.3334H51.7585V30.4327H52.1817ZM51.5333 30.4327V31.3334H51.1128V30.4327H51.5333ZM50.8931 30.4327V31.3334H50.478V30.4327H50.8931ZM50.2583 30.4327V31.3334H49.8432V30.4327H50.2583ZM49.618 30.4327V31.3334H49.1948V30.4327H49.618ZM48.9724 30.4327V31.3334H48.5546V30.4327H48.9724ZM48.3321 30.4327V31.3334H47.9171V30.4327H48.3321ZM47.6919 30.4327V31.3334H47.2796V30.4327H47.6919ZM47.0571 30.4327V31.3334H46.6393V30.4327H47.0571ZM46.4142 30.4327V31.3334H45.9964V30.4327H46.4142ZM45.7712 30.4327V31.3334H45.348V30.4327H45.7712ZM45.131 30.4327V31.3334H44.7132V30.4327H45.131ZM44.4962 30.4327V31.3334H44.0784V30.4327H44.4962ZM43.8532 30.4327V31.3334H43.43V30.4327H43.8532ZM43.213 30.4327V31.3334H42.7898V30.4327H43.213ZM42.5673 30.4327V31.3334H42.155V30.4327H42.5673ZM41.9298 30.4327V31.3334H41.512V30.4327H41.9298ZM41.295 30.4327V31.3334H40.8718V30.4327H41.295ZM40.6493 30.4327V31.3334H40.2316V30.4327H40.6493ZM40.0037 30.4327V31.3334H39.5859V30.4327H40.0037ZM39.3716 30.4327V31.3334H38.9538V30.4327H39.3716ZM38.7341 30.4327V31.3334H38.3136V30.4327H38.7341ZM38.0884 30.5087V31.3307H37.6679V30.43H37.9148V30.506L38.0884 30.5087ZM31.0214 29.7193H32.0822H32.6112H37.9148V30.0665H31.0214V29.7193ZM37.4455 30.4327V31.3334H37.025V30.4327H37.4455ZM36.8025 30.4327V31.3334H36.3929V30.4327H36.8025ZM36.165 30.4327V31.3334H35.7499V30.4327H36.165ZM35.5275 30.4327V31.3334H35.107V30.4327H35.5275ZM34.8845 30.4327V31.3334H34.4641V30.4327H34.8845ZM34.2416 30.4327V31.3334H33.8238V30.4327H34.2416ZM33.6068 30.4327V31.3334H33.189V30.4327H33.6068ZM32.9666 30.4327V31.3334H32.5461V30.4327H32.9666ZM32.3209 30.4327V31.3334H31.9004V30.4327H32.3209ZM31.6807 30.4327V31.3334H31.2656V30.4327H31.6807ZM30.6281 30.4327H31.0404V31.3334H30.6281V30.4327ZM57.1435 31.933V32.4077H29.9933V31.933H57.1435ZM29.9824 31.3307V30.43H30.4056V31.3307H29.9824ZM14.6494 29.7193H30.4924V30.0665H14.6494V29.7193ZM29.7627 30.4327V31.3334H29.3422V30.4327H29.7627ZM29.1224 30.4327V31.3334H28.6992V30.4327H29.1224ZM28.4795 30.4327V31.3334H28.0617V30.4327H28.4795ZM27.8447 30.4327V31.3334H27.4242V30.4327H27.8447ZM27.2018 30.4327V31.3334H26.784V30.4327H27.2018ZM16.4182 31.4338L17.2971 31.933H26.4123V32.4077H17.1751L16.1903 31.8434L16.4182 31.4338ZM15.8946 31.3307V30.43H16.3178V31.3307H15.8946ZM16.5402 31.3307V30.43H16.9553V31.3307H16.5402ZM17.1751 31.3307V30.43H17.5901V31.3307H17.1751ZM17.8126 31.3307V30.43H18.2331V31.3307H17.8126ZM18.4555 31.3307V30.43H18.876V31.3307H18.4555ZM19.0985 31.3307V30.43H19.5162V31.3307H19.0985ZM19.7414 31.3307V30.43H20.1538V31.3307H19.7414ZM20.3762 31.3307V30.43H20.794V31.3307H20.3762ZM21.0165 31.3307V30.43H21.4342V31.3307H21.0165ZM21.6594 31.3307V30.43H22.0826V31.3307H21.6594ZM22.2996 31.3307V30.43H22.7174V31.3307H22.2996ZM22.9344 31.3307V30.43H23.3522V31.3307H22.9344ZM23.5774 31.3307V30.43H24.0006V31.3307H23.5774ZM24.2176 31.3307V30.43H24.6408V31.3307H24.2176ZM24.8633 31.3307V30.43H25.2783V31.3307H24.8633ZM25.5035 31.3307V30.43H25.9159V31.3307H25.5035ZM26.1356 31.3307V30.43H26.5588V31.3307H26.1356ZM15.6721 30.4327V31.3334H15.2489V30.4327H15.6721ZM14.6494 30.4327H15.0292V31.0784L14.6467 30.5087V30.4327H14.6494ZM5.80007 30.3405H14.4486V30.8125H5.80007V30.3405ZM14.1638 38.6201H13.6375V38.4438H12.1292V38.6201H11.6029V37.4482H12.1292V37.7846H12.6148V37.1226H12.4194V36.1487H13.3011V37.1226H13.1248V37.7846H13.6348V37.4482H14.1611V38.6201H14.1638ZM51.4384 38.7015H41.2733L41.2109 38.5605C41.04 38.2458 38.4899 36.0673 36.1731 34.1684L35.6658 33.756H50.8442V34.2253H36.9762C38.3543 35.362 40.9857 37.5567 41.5446 38.2295H41.7833L41.5256 37.9718L43.78 35.712L42.8169 34.7543L43.1506 34.4206L44.4501 35.712L41.9325 38.2295H50.9663V37.9636L50.6353 38.1481C50.1932 37.3397 49.675 35.3918 49.6479 35.3159V35.2481V34.4559H50.1145V35.2155C50.1823 35.4488 50.6028 36.9734 50.9663 37.7547V33.4576H51.4411V38.7015H51.4384ZM70.0377 36.6777H68.5185V35.8557H70.0377V36.6777ZM72.7369 38.905H71.8526V38.4167H72.7369V38.905ZM77.5061 38.5143H75.6994V37.6489H77.5061V38.5143ZM75.2328 36.6587V35.8584H76.9581V36.6587H75.2328ZM84.0712 38.5767H82.6334V37.809H84.0712V38.5767ZM82.1234 36.637V35.815H83.6317V36.637H82.1234ZM104.236 36.7808H102.782V35.8557H104.236V36.7808ZM106.471 36.2762H105.02V35.3457H106.471V36.2762ZM109.119 36.7401H107.665V35.8123H109.119V36.7401ZM117.228 36.637H114.49V35.6116H117.228V36.637ZM129.653 39.103H118.033V37.9121H123.402V37.0494H118.009V36.2572H124.17V36.8052H129.628V37.9121H129.655L129.653 39.103ZM131.438 35.3267H130.556V34.5346H131.438V35.3267ZM59.8183 34.1466V32.9991L1.3293 33.3328V32.858L60.2904 32.5325V33.6773L134.864 33.9432L192.447 34.1656L192.444 34.6295L134.861 34.4071L59.8183 34.1466ZM145.051 38.0016H144.123V37.0467H145.051V38.0016ZM153.914 38.026H152.847V37.0738H153.914V38.026ZM154.657 36.2355H153.688V35.2426H154.657V36.2355ZM159.437 37.8687H157.56V36.7835H159.437V37.8687ZM162.104 37.4265H159.852V35.9507H162.104V37.4265ZM163.346 37.4265H162.483V36.3902H163.346V37.4265ZM172.621 38.3109H170.942V37.3614H172.621V38.3109ZM174.257 35.6333H177.019V36.7835H174.257V35.6333ZM183.364 39.198H176.712V37.5648H183.364V39.198ZM213.13 41.8484H191.56V41.3737H213.13V41.8484ZM231.851 34.1901H240.592V33.558H241.061V37.5621H240.592V34.6539H231.851V34.1901ZM231.593 38.0287H243.592V37.1172L243.071 36.5991L243.397 36.2681L244.059 36.9246V38.5035H231.591L231.593 38.0287ZM243.855 38.8344V39.2956H236.978V38.8344H243.855ZM218.007 35.6577H215.753V35.0826H218.007V35.6577ZM218.007 33.8265H215.753V33.2514H218.007V33.8265ZM226.206 35.6577H223.946V35.0826H226.206V35.6577ZM228.88 39.32V37.9663H230.633V33.9133H231.094V38.4384H229.355V38.8534H236.843V40.3455H243.302V40.8203H236.368V39.32H228.88ZM242.477 43.9536L242.054 43.7637L244.303 38.7341H244.742V36.4987H245.215V39.2061H244.601L242.477 43.9536ZM246.793 40.8555L246.842 42.9878L243.595 43.213L244.65 40.9559C244.65 40.9559 245.388 40.6412 246.156 40.275L246.793 40.8555Z" fill="#FBFF28"/>
</svg>
