<svg width="100" height="25" viewBox="0 0 100 25" fill="none" xmlns="http://www.w3.org/2000/svg">
<g clip-path="url(#clip0_23_255)">
<path fill-rule="evenodd" clip-rule="evenodd" d="M0 18.6567H3.40862V18.1799H2.50513V17.9726H3.40862V17.8068H3.73717V17.9726H4.10678V18.1799H3.73717V18.6567H5.79055V17.1434H9.11704V18.6567H31.7043V16.7081H37.1047V18.6567H42.5051L43.5934 15.6716L57.4949 14.9668L57.5975 8.45771H59.9589V12.1269H61.4168V10.2612H63.655V12.1061H65.5031V9.36982L67.3511 8.74793V2.67413L73.306 0L73.5113 10.3648L82.5051 13.2048V14.5108L91.3347 15.6716H92.1766V17.4337H93.306V18.864H97.4127V16.5837C97.7754 16.8337 98.1603 17.0488 98.5626 17.2264C98.193 17.558 97.8439 17.8275 97.4949 17.7653V18.864H99.9179C99.7331 19.7347 100.945 24.7305 96.8378 24.9585H7.59754C2.83368 19.5481 2.52567 20.937 0 18.6567ZM61.6016 12.0232H63.4086V10.7172H61.6016V12.0232ZM32.2587 18.6567H36.7146V17.2056H32.2587V18.6567ZM84.8255 16.1277H85.7906V17.102H84.8255V16.1277ZM82.3409 16.1277H83.2854V17.102H82.3409V16.1277Z" fill="#FBFF28"/>
</g>
<defs>
<clipPath id="clip0_23_255">
<rect width="100" height="25" fill="white"/>
</clipPath>
</defs>
</svg>
